<svg preserveAspectRatio="none" width="100%" height="100%" overflow="visible" style="display: block;" viewBox="0 0 18 18" fill="none" xmlns="http://www.w3.org/2000/svg">
<g id="icon_night" clip-path="url(#clip0_0_20)">
<path id="Vector" d="M13.5 11.5C12.4575 11.821 11.3472 11.8517 10.2886 11.5889C9.22995 11.3261 8.26298 10.7796 7.49167 10.0083C6.72037 9.23702 6.17392 8.27005 5.91109 7.2114C5.64826 6.15275 5.679 5.04249 6 4C4.82472 4.20038 3.7272 4.72015 2.8275 5.50243C1.9278 6.28471 1.26059 7.29938 0.89886 8.43541C0.537131 9.57145 0.494822 10.7851 0.77656 11.9436C1.0583 13.102 1.65323 14.1607 2.49627 15.0037C3.33931 15.8468 4.39797 16.4417 5.55644 16.7234C6.71491 17.0052 7.92855 16.9629 9.06459 16.6011C10.2006 16.2394 11.2153 15.5722 11.9976 14.6725C12.7799 13.7728 13.2996 12.6753 13.5 11.5Z" stroke="var(--stroke-0, #6C5AA7)" stroke-width="1.5" stroke-linecap="round" stroke-linejoin="round"/>
</g>
<defs>
<clipPath id="clip0_0_20">
<rect width="18" height="18" fill="white"/>
</clipPath>
</defs>
</svg>
